<svg xmlns="http://www.w3.org/2000/svg" xmlns:xlink="http://www.w3.org/1999/xlink" version="1.1" x="0px" y="0px" viewBox="100 125" style="enable-background:new 0 0 100 100;" xml:space="preserve"><style type="text/css">
	.st0{fill:#1D1D1B;}
</style><g><path class="st0" d="M50.6,61h-4.2c-1.3,0-2,1.6-1.1,2.6l2.1,2.2c0.6,0.7,1.6,0.7,2.2,0l2.1-2.2C52.6,62.6,51.9,61,50.6,61z"/><circle class="st0" cx="37.1" cy="57.3" r="2.1"/><circle class="st0" cx="59.9" cy="57.3" r="2.1"/><path class="st0" d="M56.9,66.4c-0.8,0-1.5,0.7-1.5,1.5c0,1.8-1.5,3.2-3.2,3.2c-0.8,0-1.5,0.7-1.5,1.5s0.7,1.5,1.5,1.5   c3.4,0,6.2-2.8,6.2-6.2C58.4,67.1,57.8,66.4,56.9,66.4z"/><path class="st0" d="M72.3,44.9c-0.6-1.1-1.5-1.9-2.9-2.3c-0.3-0.1-0.7-0.2-1-0.2c1.5-9.2,2.4-21-2.9-22.2   c-2.4-0.5-6.9,1.3-11.6,17.7c-0.1,0-0.1-0.1-0.2-0.1c-0.6-0.2-1.1-0.3-1.7-0.3h0c-3.3,0-4.2,3-4.5,4.3c-0.1,0.2-0.1,0.4-0.2,0.6   c-0.1,0.2-0.1,0.4-0.2,0.6c0,0.1-0.1,0.2-0.1,0.3c-0.8,0-1.6,0.1-2.5,0.3c-5.2-21.7-10.4-24-13.1-23.4c-6.8,1.5-3.3,21.1-1.4,29.5   c0.2,0.7,0.3,1.4,0.5,2.1c-2.2,2.9-3.3,6.3-3.3,9.8c0,10.1,9.5,18.3,21.3,18.3s21.2-8.2,21.2-18.3c0-2.3-0.5-4.6-1.5-6.7   c2.5-0.5,3.3-3.1,3.6-4.2c0.1-0.2,0.1-0.4,0.2-0.6c0.1-0.2,0.1-0.4,0.2-0.6C72.6,48.2,73.2,46.6,72.3,44.9z M64.8,23.1   c1.3,0.3,2.8,5.6,0.5,19.1c-0.7,0.1-1.3,0.1-1.9,0.3c-0.3-0.4-0.7-0.7-1.1-1l0.8-3.5c0.2-0.8-0.3-1.6-1.1-1.8   c-0.8-0.2-1.6,0.3-1.8,1.1l-0.8,3.5c-0.2,0-0.5,0.1-0.7,0.1c-0.2-0.2-0.3-0.4-0.5-0.6c-0.5-0.4-1-0.8-1.5-1.2   C60.2,26.8,63.6,22.8,64.8,23.1z M59.9,43.9c0.1,0,0.2,0,0.4,0.1c0,0.1,0,0.1,0,0.2c0,0,0.1-0.1,0.1-0.1c1.1,0.4,0.8,1.3,0.4,2.4   c-0.3,1-0.5,1.8-1.3,1.8c-0.1,0-0.2,0-0.3-0.1c0,0-0.1,0-0.1,0c0,0-0.1,0-0.1-0.1c-1-0.4-0.7-1.3-0.4-2.4   C58.9,44.7,59.1,43.9,59.9,43.9z M50.2,43.3c0.5-1.5,0.6-2.8,1.8-2.8c0.2,0,0.5,0,0.8,0.1c1.1,0.3,2.6,1.3,3.6,2.4   c-0.4,0.7-0.6,1.3-0.7,1.7l0,0.1l0,0.1c-0.2,0.6-0.4,1.3-0.4,2.1c-0.7,0.2-1.5,0.3-2.2,0.3c-0.8,0-1.6-0.1-2.2-0.3   C48.9,46.4,49.7,45.1,50.2,43.3z M32.2,23.1c0,0,0.1,0,0.1,0c1.5,0,5.5,5.1,9.4,21.2c-0.1,0-0.1,0-0.2,0.1c-0.1,0-0.3,0.1-0.4,0.1   c-0.4,0.1-0.8,0.3-1.2,0.4c-0.1,0-0.2,0.1-0.4,0.1c-0.3,0.1-0.6,0.2-0.8,0.4l-1.8-8c-0.2-0.8-1-1.3-1.8-1.1c-0.8,0.2-1.3,1-1.1,1.8   l1.9,8.8c-0.3,0.2-0.7,0.4-1,0.7c-0.1,0-0.1,0.1-0.2,0.1c-0.4,0.3-0.7,0.6-1.1,0.9c-0.1,0.1-0.2,0.2-0.3,0.3   c-0.1,0.1-0.2,0.2-0.3,0.2c0,0,0,0,0,0C28.9,30.4,30.7,23.4,32.2,23.1z M48.5,76.9c-10.1,0-18.3-6.9-18.3-15.3c0-3.1,1.1-6,3.1-8.6   c2.5-3.1,6.2-5.3,10.4-6.2c1-0.2,1.9-0.4,2.9-0.4c0.1,0.4,0.2,0.8,0.4,1.2c0.6,1.1,1.5,1.9,2.9,2.3c1.1,0.3,2.3,0.4,3.1,0.4   c1.2,0,2.2-0.2,3.2-0.4c0.5,0.5,1.1,1,1.9,1.2c0.5,0.1,0.9,0.2,1.3,0.2c0.3,0,0.6,0,0.9-0.1c1.1,1.3,2.6,2.4,4,3.1   c1.5,2.3,2.3,4.8,2.3,7.4C66.8,70,58.6,76.9,48.5,76.9z M69.1,49.1c-0.5,1.5-0.6,2.8-1.8,2.8c-0.2,0-0.5,0-0.8-0.1   c-1.1-0.4-2.7-1.3-3.7-2.5c0.5-0.7,0.7-1.5,0.8-2l0-0.1l0-0.1c0.2-0.5,0.3-1.1,0.4-1.8c0.7-0.2,1.4-0.2,2.1-0.2   c0.8,0,1.6,0.1,2.2,0.3C70.5,46.1,69.7,47.4,69.1,49.1z"/></g></svg>